<svg width="17" height="15" xmlns="http://www.w3.org/2000/svg" xmlns:xlink="http://www.w3.org/1999/xlink" xmlns:svgjs="http://svgjs.com/svgjs" viewBox="0 0.133 17 14.733" fill="#fff"><svg xmlns="http://www.w3.org/2000/svg" width="17" height="15" viewBox="1.5 1.5 15 13"><path paint-order="stroke fill markers" fill-rule="evenodd" d="M16.5 3.044c-.55.254-1.15.436-1.769.507a3.242 3.242 0 0 0 1.352-1.807 5.83 5.83 0 0 1-1.951.792A2.98 2.98 0 0 0 11.885 1.5c-1.704 0-3.074 1.473-3.074 3.28 0 .254.028.508.076.752C6.336 5.39 4.06 4.09 2.547 2.099a3.424 3.424 0 0 0-.419 1.656c0 1.137.543 2.143 1.37 2.732A2.952 2.952 0 0 1 2.11 6.07v.041c0 1.594 1.057 2.915 2.466 3.22a3.06 3.06 0 0 1-.81.111c-.2 0-.39-.02-.58-.05.39 1.3 1.523 2.244 2.875 2.274a5.917 5.917 0 0 1-3.818 1.402c-.257 0-.495-.01-.742-.04A8.298 8.298 0 0 0 6.221 14.5c5.655 0 8.748-4.997 8.748-9.334 0-.142 0-.284-.01-.426a6.818 6.818 0 0 0 1.54-1.696z"/></svg></svg>