<svg width="17" height="17" xmlns="http://www.w3.org/2000/svg" xmlns:xlink="http://www.w3.org/1999/xlink" xmlns:svgjs="http://svgjs.com/svgjs" viewBox="0 0.531 17 15.938" fill="#fff"><svg xmlns="http://www.w3.org/2000/svg" width="17" height="17" viewBox="2 1.5 16 15"><path paint-order="stroke fill markers" fill-rule="evenodd" d="M10.585 13.775c0 1.537-1.701 2.065-2.764 2.065-1.625 0-4.053-.65-4.053-2.338 0-1.827 2.743-2.285 4.281-2.285.122 0 .236 0 .357.018.818.624 2.18 1.31 2.18 2.54zM9.338 5.817c0 .95-.461 1.72-1.438 1.72-1.783 0-2.907-1.852-2.907-3.205 0-1.14.72-2.23 2.192-2.23 1.442 0 2.153 2.4 2.153 3.715zM8.278 1.5c-.45 0-.98.058-1.666.167-2.046.334-3.424 1.846-3.424 3.66 0 1.564 1.614 2.871 3.795 2.871.258 0 .517-.022.696-.055-.072.323-.157.548-.157.886 0 .574.22 1.087.456 1.528-2.043.054-4.841.56-5.636 2.163-.194.37-.342.773-.342 1.187C2 15.926 4.235 16.5 6.666 16.5c1.47 0 2.734-.23 3.929-1.003.785-.65 1.294-1.467 1.294-2.478 0-2.616-2.956-3.139-2.956-4.461 0-1.308 2.253-1.464 2.253-3.55 0-1.113-.462-2.262-1.474-2.848h.618l1.51-.66H8.277zM18 3.835h-2.366V1.5h-1.27v2.335h-2.41v1.273h2.41v1.994h1.27V5.108H18V3.835z"/></svg></svg>